<?xml version="1.0" encoding="iso-8859-1"?>
<!-- Generator: Adobe Illustrator 19.0.0, SVG Export Plug-In . SVG Version: 6.00 Build 0)  -->
<svg xmlns="http://www.w3.org/2000/svg" xmlns:xlink="http://www.w3.org/1999/xlink" version="1.1" id="Layer_1" x="0px" y="0px" viewBox="0 0 512 512" style="enable-background:new 0 0 512 512;" xml:space="preserve" width="512px" height="512px">
<g>
	<g>
		<polygon points="277.578,430.223 261.873,430.223 250.127,430.223 234.422,430.223 218.718,430.223 218.718,512 293.282,512     293.282,430.223   " fill="#2bd900"/>
	</g>
</g>
<g>
	<g>
		<path d="M256,294.193c-8.815,0-15.997,7.182-15.997,15.997c0,8.826,7.182,15.997,15.997,15.997    c8.815,0,15.997-7.172,15.997-15.997C271.997,301.375,264.815,294.193,256,294.193z" fill="#2bd900"/>
	</g>
</g>
<g>
	<g>
		<path d="M256,95.272c-16.196,0-30.215,9.286-36.926,22.928h73.852C286.215,104.559,272.196,95.272,256,95.272z" fill="#2bd900"/>
	</g>
</g>
<g>
	<g>
		<path d="M400.919,141.684c-0.848-38.025-16.291-73.653-43.501-100.298C330.166,14.699,294.151,0,256,0    s-74.166,14.699-101.418,41.386c-27.21,26.645-42.653,62.273-43.501,100.298l-0.031,1.455l42.025,255.749h49.406h16.238h15.704    h43.155h15.704h14.417h51.227l42.025-255.749L400.919,141.684z M183.52,133.214c1.696-38.884,33.534-69.35,72.48-69.35    c38.947,0,70.784,30.466,72.48,69.35l0.722,16.395H182.797L183.52,133.214z M256,357.596c-26.142,0-47.406-21.264-47.406-47.406    c0-26.142,21.263-47.406,47.406-47.406s47.406,21.264,47.406,47.406C303.406,336.332,282.142,357.596,256,357.596z     M331.035,238.359h-31.408v-18.5h-87.253v18.5h-31.409v-49.908h150.07V238.359z" fill="#2bd900"/>
	</g>
</g>
<g>
</g>
<g>
</g>
<g>
</g>
<g>
</g>
<g>
</g>
<g>
</g>
<g>
</g>
<g>
</g>
<g>
</g>
<g>
</g>
<g>
</g>
<g>
</g>
<g>
</g>
<g>
</g>
<g>
</g>
</svg>
